<svg viewBox="0 0 200 200" xmlns="http://www.w3.org/2000/svg">
  <defs>
    <!-- Gradient orange futuriste -->
    <linearGradient id="orangeGradient" x1="0%" y1="0%" x2="100%" y2="100%">
      <stop offset="0%" style="stop-color:#FF6B35;stop-opacity:1" />
      <stop offset="100%" style="stop-color:#FF8C42;stop-opacity:1" />
    </linearGradient>
    
    <!-- Glow effect -->
    <filter id="glow" x="-20%" y="-20%" width="140%" height="140%">
      <feGaussianBlur stdDeviation="2" result="coloredBlur"/>
      <feMerge> 
        <feMergeNode in="coloredBlur"/>
        <feMergeNode in="SourceGraphic"/>
      </feMerge>
    </filter>
  </defs>
  
  <!-- Fond transparent -->
  
  <!-- Coins de positionnement stylisés -->
  <!-- Coin supérieur gauche -->
  <rect x="25" y="25" width="35" height="35" rx="5" fill="url(#orangeGradient)" filter="url(#glow)"/>
  <rect x="32" y="32" width="21" height="21" rx="3" fill="#000000"/>
  <rect x="37" y="37" width="11" height="11" rx="2" fill="url(#orangeGradient)"/>
  
  <!-- Coin supérieur droit -->
  <rect x="140" y="25" width="35" height="35" rx="5" fill="url(#orangeGradient)" filter="url(#glow)"/>
  <rect x="147" y="32" width="21" height="21" rx="3" fill="#000000"/>
  <rect x="152" y="37" width="11" height="11" rx="2" fill="url(#orangeGradient)"/>
  
  <!-- Coin inférieur gauche -->
  <rect x="25" y="140" width="35" height="35" rx="5" fill="url(#orangeGradient)" filter="url(#glow)"/>
  <rect x="32" y="147" width="21" height="21" rx="3" fill="#000000"/>
  <rect x="37" y="152" width="11" height="11" rx="2" fill="url(#orangeGradient)"/>
  
  <!-- Pattern QR simplifié avec carrés uniquement -->
  <!-- Zone supérieure -->
  <rect x="80" y="30" width="12" height="12" rx="2" fill="url(#orangeGradient)"/>
  <rect x="96" y="30" width="12" height="12" rx="2" fill="#000000"/>
  <rect x="112" y="30" width="12" height="12" rx="2" fill="url(#orangeGradient)"/>
  
  <!-- Zone médiane -->
  <rect x="30" y="75" width="12" height="12" rx="2" fill="#000000"/>
  <rect x="46" y="75" width="12" height="12" rx="2" fill="url(#orangeGradient)"/>
  
  <rect x="80" y="75" width="12" height="12" rx="2" fill="url(#orangeGradient)"/>
  <rect x="96" y="75" width="12" height="12" rx="2" fill="#000000"/>
  <rect x="112" y="75" width="12" height="12" rx="2" fill="url(#orangeGradient)"/>
  <rect x="128" y="75" width="12" height="12" rx="2" fill="#000000"/>
  
  <!-- Zone médiane basse -->
  <rect x="46" y="105" width="12" height="12" rx="2" fill="#000000"/>
  <rect x="62" y="105" width="12" height="12" rx="2" fill="url(#orangeGradient)"/>
  <rect x="112" y="105" width="12" height="12" rx="2" fill="#000000"/>
  <rect x="128" y="105" width="12" height="12" rx="2" fill="url(#orangeGradient)"/>
  
  <!-- Zone inférieure -->
  <rect x="80" y="130" width="12" height="12" rx="2" fill="#000000"/>
  <rect x="96" y="130" width="12" height="12" rx="2" fill="url(#orangeGradient)"/>
  <rect x="128" y="130" width="12" height="12" rx="2" fill="#000000"/>
  
  <rect x="46" y="158" width="12" height="12" rx="2" fill="url(#orangeGradient)"/>
  <rect x="80" y="158" width="12" height="12" rx="2" fill="#000000"/>
  <rect x="112" y="158" width="12" height="12" rx="2" fill="url(#orangeGradient)"/>
</svg>